<svg xmlns="http://www.w3.org/2000/svg" width="33.919" height="34.491" viewBox="0 0 33.919 34.491">
  <path id="Path_378" data-name="Path 378" d="M867.225,837.775l.05-1.163.088-1.15.112-1.137.15-1.1.175-1.075.213-1.05.237-.988.275-.95.3-.9.338-.837.362-.775.388-.713.425-.65.437-.562.475-.5.5-.413.513-.337.537-.25.563-.175.587-.088.588-.012.612.087.638.15.637.25.65.313.65.4.663.475.662.537.663.613.662.675.663.737.65.8.637.838.625.9.613.925.6.975.575,1,.55,1.025.525,1.05.487,1.062.463,1.063.425,1.075.387,1.075.35,1.062.3,1.038.263,1.037.212,1,.175.975.113.938.062.9.013.862-.05.813-.1.75-.15.712-.213.65-.262.588-.325.525-.375.462-.425.4-.488.338-.537.262-.588.2-.625.125-.687.063-.725-.013-.763-.075-.8-.137-.825-.2-.875-.263-.887-.325-.913-.375-.925-.437-.95-.475-.95-.538-.962-.575-.95-.612-.95-.65-.938-.688-.925-.725-.912-.737-.875-.763-.85-.787-.813-.788-.775-.812-.725-.813-.687-.812-.625-.8-.575-.813-.513-.8-.45-.775-.375-.775-.312-.75-.25-.725-.163-.7-.087-.675-.025-.65.062-.612.138-.588.212-.537.3-.513.363-.475.45-.425.512-.387.588-.35.65-.313.725-.262.775-.225.837-.175.9-.138.938-.1.987-.062,1.025-.013,1.063.025,1.087.075,1.113.1,1.125.138,1.15.175,1.137.212,1.15.25,1.138.275,1.112.3,1.113.338,1.075.362,1.05.388,1,.412.975.438.912.462.863.475.812.5.75.513.675.525.6.537.538.55.45.563.387.575.288.575.212.575.125.587.05.588-.05.575-.125.587-.212.575-.288.575-.387.575-.45.563-.538.55-.6.537-.675.525-.75.513-.812.5-.863.475-.912.462-.975.438-1,.412-1.05.388-1.075.362-1.113.338-1.112.3-1.138.275-1.15.25-1.137.212-1.15.175-1.125.138-1.113.1-1.087.075-1.063.025-1.025-.013-.987-.062-.938-.1-.9-.138-.837-.175-.775-.225-.725-.262-.65-.313-.588-.35-.512-.387-.45-.425-.363-.475-.3-.513-.212-.537-.138-.588-.062-.612.025-.65.087-.675.163-.7.25-.725.312-.75L863.1,840l.45-.775.513-.8.575-.813.625-.8.687-.812.725-.813.775-.812.813-.788.85-.787.875-.763.912-.737.925-.725.938-.688.95-.65.95-.612.962-.575.95-.538.95-.475.925-.437.913-.375.887-.325.875-.263.825-.2.8-.137.763-.075.725-.013.687.063.625.125.588.2.537.262.488.338.425.4.375.462.325.525.262.588.213.65.15.712.1.75.05.813-.013.862-.062.9-.113.938-.175.975-.212,1-.263,1.037-.3,1.038-.35,1.062-.387,1.075-.425,1.075-.463,1.063-.487,1.062-.525,1.05-.55,1.025-.575,1-.6.975-.613.925-.625.9-.637.838-.65.8-.663.737-.662.675-.663.613-.662.537-.663.475-.65.4-.65.313-.637.25-.638.15-.612.087-.588-.012-.587-.088-.563-.175-.537-.25-.513-.337-.5-.413-.475-.5-.437-.562-.425-.65-.388-.713-.362-.775-.338-.837-.3-.9-.275-.95-.237-.988-.213-1.05-.175-1.075-.15-1.1-.112-1.137-.088-1.15-.05-1.163m0-2.337-.012,1.162.012,1.175m0-2.337-.012,1.175.012,1.162" transform="translate(-860.636 -821.698)" fill="none" stroke="#0965fc" stroke-width="2.5"/>
</svg>
