<svg xmlns="http://www.w3.org/2000/svg" width="19.5" height="19.5" viewBox="0 0 19.5 19.5">
  <g id="Group_362" data-name="Group 362" transform="translate(-330.25 -3119.439)">
    <path id="Path_562" data-name="Path 562" d="M103.72,1111.97a2.076,2.076,0,0,0,2.28,1.79m0,0a2.076,2.076,0,0,0,2.28-1.79,1.7,1.7,0,0,0-.319-.96,1.656,1.656,0,0,0-.811-.6c-.62-.23-1.93-.55-2.54-.83a1.545,1.545,0,0,1-.89-1.43,2.076,2.076,0,0,1,2.28-1.79m0,7.4v1.3m0-8.7a2.076,2.076,0,0,1,2.28,1.79m-2.28-1.79v-1.3" transform="translate(234 2019.129)" fill="none" stroke="#181818" stroke-linecap="round" stroke-linejoin="round" stroke-width="1.5"/>
    <path id="Path_563" data-name="Path 563" d="M106,1119.06a9.009,9.009,0,0,0,8.315-5.56,8.98,8.98,0,0,0,0-6.88,9.022,9.022,0,0,0-8.315-5.56,9,9,0,0,0,0,18Z" transform="translate(234 2019.129)" fill="none" stroke="#181818" stroke-linecap="round" stroke-linejoin="round" stroke-width="1.5"/>
  </g>
</svg>
