<svg xmlns="http://www.w3.org/2000/svg" width="27.17" height="27.172" viewBox="0 0 27.17 27.172">
  <path id="Exclusion_7" data-name="Exclusion 7" d="M4043.969-2643.829a3.752,3.752,0,0,1-.838-.095l-2.7-.639a3.557,3.557,0,0,0-.845-.1,3.548,3.548,0,0,0-.844.1l-2.7.639a3.775,3.775,0,0,1-.839.095,3.684,3.684,0,0,1-1.631-.381,3.749,3.749,0,0,1-1.736-1.779l-1.192-2.554a3.927,3.927,0,0,0-1.055-1.345l-2.173-1.752a3.843,3.843,0,0,1-1.321-2.133,3.839,3.839,0,0,1,.282-2.5l1.214-2.541a3.8,3.8,0,0,0,.376-1.671l-.013-2.825a3.858,3.858,0,0,1,.812-2.381,3.741,3.741,0,0,1,2.1-1.341l2.707-.611a3.59,3.59,0,0,0,1.52-.748l2.16-1.766a3.68,3.68,0,0,1,2.336-.842,3.672,3.672,0,0,1,2.333.842l2.161,1.766a3.6,3.6,0,0,0,1.521.748l2.7.611a3.823,3.823,0,0,1,2.106,1.358,3.752,3.752,0,0,1,.806,2.364l-.012,2.825a3.85,3.85,0,0,0,.377,1.671l1.211,2.541a3.865,3.865,0,0,1,.284,2.5,3.8,3.8,0,0,1-1.322,2.128l-2.175,1.752a3.934,3.934,0,0,0-1.053,1.345l-1.192,2.554a3.736,3.736,0,0,1-1.736,1.779A3.683,3.683,0,0,1,4043.969-2643.829Zm-4.726-17.633a1.752,1.752,0,0,1,.92.236,1.631,1.631,0,0,1,.608.648,2.008,2.008,0,0,1,.216.94,1.705,1.705,0,0,1-.224.792,3.4,3.4,0,0,1-.768.9l-4.832,4.288v1.888h8.064v-2.048h-4.685l2.573-2.257c.452-.394.842-.755,1.16-1.075a3.341,3.341,0,0,0,.712-1.041,3.665,3.665,0,0,0,.24-1.42,4.005,4.005,0,0,0-.512-2.04,3.644,3.644,0,0,0-1.4-1.373,4.141,4.141,0,0,0-2.021-.491,4.715,4.715,0,0,0-2.16.472,3.524,3.524,0,0,0-1.449,1.336,3.92,3.92,0,0,0-.52,2.048h2.24a1.676,1.676,0,0,1,.217-.892,1.783,1.783,0,0,1,.651-.663A1.868,1.868,0,0,1,4039.243-2661.462Z" transform="translate(-4026 2671)" fill="#003912"/>
</svg>
