<svg xmlns="http://www.w3.org/2000/svg" width="27.17" height="27.172" viewBox="0 0 27.17 27.172">
  <path id="Exclusion_8" data-name="Exclusion 8" d="M4043.969-2643.829a3.752,3.752,0,0,1-.838-.095l-2.7-.639a3.557,3.557,0,0,0-.845-.1,3.548,3.548,0,0,0-.844.1l-2.7.639a3.775,3.775,0,0,1-.839.095,3.684,3.684,0,0,1-1.631-.381,3.749,3.749,0,0,1-1.736-1.779l-1.192-2.554a3.927,3.927,0,0,0-1.055-1.345l-2.173-1.752a3.843,3.843,0,0,1-1.321-2.133,3.839,3.839,0,0,1,.282-2.5l1.214-2.541a3.8,3.8,0,0,0,.376-1.671l-.013-2.825a3.858,3.858,0,0,1,.812-2.381,3.741,3.741,0,0,1,2.1-1.341l2.707-.611a3.59,3.59,0,0,0,1.52-.748l2.16-1.766a3.68,3.68,0,0,1,2.336-.842,3.672,3.672,0,0,1,2.333.842l2.161,1.766a3.6,3.6,0,0,0,1.521.748l2.7.611a3.823,3.823,0,0,1,2.106,1.358,3.752,3.752,0,0,1,.806,2.364l-.012,2.825a3.85,3.85,0,0,0,.377,1.671l1.211,2.541a3.865,3.865,0,0,1,.284,2.5,3.8,3.8,0,0,1-1.322,2.128l-2.175,1.752a3.934,3.934,0,0,0-1.053,1.345l-1.192,2.554a3.736,3.736,0,0,1-1.736,1.779A3.683,3.683,0,0,1,4043.969-2643.829Zm-6.132-10.753h0l-2.113.559a3.71,3.71,0,0,0,.828,1.489,4.11,4.11,0,0,0,1.364.979,4.036,4.036,0,0,0,1.648.348,4.052,4.052,0,0,0,2-.508,4.048,4.048,0,0,0,1.464-1.376,3.584,3.584,0,0,0,.552-1.956,4.047,4.047,0,0,0-.356-1.676,3.527,3.527,0,0,0-1.04-1.327,3.32,3.32,0,0,0-1.149-.578l2.337-2.258v-2.048h-7.2v2.048h4.625l-3.105,2.576.976,1.712a2.1,2.1,0,0,1,.432-.188,1.624,1.624,0,0,1,.464-.068,1.728,1.728,0,0,1,1.3.532,1.791,1.791,0,0,1,.509,1.276,1.735,1.735,0,0,1-.244.9,1.828,1.828,0,0,1-.656.648,1.784,1.784,0,0,1-.908.24,1.822,1.822,0,0,1-1.068-.348,1.69,1.69,0,0,1-.659-.979Z" transform="translate(-4026 2671)" fill="#003912"/>
</svg>
