<svg xmlns="http://www.w3.org/2000/svg" width="205.221" height="37.447" viewBox="0 0 205.221 37.447">
  <g id="Group_324" data-name="Group 324" transform="translate(-647.808 1172.413)">
    <path id="Union_2" data-name="Union 2" d="M30.54,36.992H27.918V18.539s0-.073.007-.209a8.859,8.859,0,0,0-2.418-.312C20.569,18,19.68,26.677,10.336,26.828S0,16.863,0,16.863V0H5.485V16.863s.586,4.52,4.851,4.5c3.155.015,4.848-2.092,6.806-4.2s4.171-4.2,8.365-4.2a20.763,20.763,0,0,1,3.311.255C30.212,8.5,33.755,2.389,42.769,2.572c15.685.341,16.79,23.842,0,24.257-5.424.033-7.672-2.434-9.784-4.765.011.178.021.275.021.275V36.992ZM42.769,21.881c9.144-.043,9.909-14.253-.626-14.255-5.378,0-7.647,3.833-8.579,7.587C36.766,17.864,36.6,21.91,42.769,21.881ZM135.7,23.82a11.945,11.945,0,0,1-3.532-8.969,10.567,10.567,0,0,1,3.065-7.7,12.123,12.123,0,0,1,4.128-2.687,13.331,13.331,0,0,1,4.852-.925,11.774,11.774,0,0,1,5.013,1.087A11.447,11.447,0,0,1,153.36,8.2a12.106,12.106,0,0,1,1.825,4.063,14.034,14.034,0,0,1,.362,4.718H138.089a5.608,5.608,0,0,0,4.815,4.316,7.781,7.781,0,0,0,1.14.087,6.751,6.751,0,0,0,3.871-1.205,5.944,5.944,0,0,0,1.308-1.205L153.78,22.3l0,.006a13.532,13.532,0,0,1-2.359,2,13.905,13.905,0,0,1-6.445,2.387c-.413.034-.829.052-1.236.052A11.738,11.738,0,0,1,135.7,23.82Zm8.423-15.262a6.53,6.53,0,0,0-2.973.659,5.643,5.643,0,0,0-1.807,1.448,6.015,6.015,0,0,0-1.139,2.107h11.817a5.98,5.98,0,0,0-1.129-2.107,5.6,5.6,0,0,0-1.8-1.449,6.514,6.514,0,0,0-2.969-.658h0ZM101.728,26.578V12.624a3.665,3.665,0,0,0-3.69-3.286,3.984,3.984,0,0,0-3.943,3.286V26.578H88.207V4.218h5.52V5.912s4.26-3.891,9.4-1.333a8.37,8.37,0,0,1,4.576,8.045V26.578Zm-29.165,0a8.8,8.8,0,0,1-4.1-.946,6.9,6.9,0,0,1-3.063-3.26,5.941,5.941,0,0,1-.312-4.625,7.5,7.5,0,0,1,4.06-4.058c4.271-1.982,10.21-2.118,10.269-2.118a3.264,3.264,0,0,0-.5-1.488,3.846,3.846,0,0,0-3.224-1.6c-.093,0-.186-.006-.279-.006a5.085,5.085,0,0,0-3.57,1.369,4.653,4.653,0,0,0-1,1.369L65.755,9.472h0l0,0a9.22,9.22,0,0,1,1.983-2.962,9.589,9.589,0,0,1,2.939-2.039,11.334,11.334,0,0,1,4.644-.927,15.383,15.383,0,0,1,1.541.08,12.022,12.022,0,0,1,5.029,1.53,7.51,7.51,0,0,1,2.559,2.5,6.962,6.962,0,0,1,1.045,3.37V26.488H80V23.541l0,0a10.912,10.912,0,0,1-4.775,2.714,11.437,11.437,0,0,1-2.659.318Zm2.983-9.984c-1.8.378-4.093,1.1-4.8,2.383a2.01,2.01,0,0,0,.127,2.036,3.861,3.861,0,0,0,2.98,1.224,5.519,5.519,0,0,0,3.877-1.572,6.769,6.769,0,0,0,1.589-4.587A28.78,28.78,0,0,0,75.546,16.594ZM56.923,26.578V0H62.78V26.578ZM109.7,14.831c.009-9.307,8.338-12.608,14.4-11.07,5.257,1.331,6.961,7.021,6.961,7.021l-5.6,1.274s-1.527-3.283-4.507-3.3c-3.066-.119-5.271,1.581-5.287,6.077-.017,4.449,2.834,6.946,6.6,6.211,2.879-.9,3.2-2.617,3.2-2.617l5.6.92a8.756,8.756,0,0,1-6.1,6.533,13.263,13.263,0,0,1-3.861.573C115.369,26.45,109.691,22.738,109.7,14.831Z" transform="translate(647.808 -1172.306)"/>
    <g id="Group_323" data-name="Group 323" transform="translate(805.323 -1172.413)">
      <ellipse id="Ellipse_2" data-name="Ellipse 2" cx="2.235" cy="2.277" rx="2.235" ry="2.277" transform="translate(1.91 21.682)"/>
      <path id="Exclusion_5" data-name="Exclusion 5" d="M5.849,18.913h0A5.667,5.667,0,0,1,1.106,16.7a5.811,5.811,0,0,1-1.1-3.7,4.609,4.609,0,0,1,1.1-2.931A8.056,8.056,0,0,1,6.268,7.956h5.843a4.122,4.122,0,0,0-.4-2.765,3.086,3.086,0,0,0-2.1-1.345,4.657,4.657,0,0,0-.945-.1A3.648,3.648,0,0,0,5.926,4.971a4.407,4.407,0,0,0-.8,1.227H.4V6.192A8.253,8.253,0,0,1,1.857,3.1,7.484,7.484,0,0,1,4.373.968,9.276,9.276,0,0,1,8.7,0c.17,0,.345,0,.519.011A9.166,9.166,0,0,1,13.643,1.2a6.447,6.447,0,0,1,2.272,2.322,7.348,7.348,0,0,1,.958,3.283V18.559H12.789l-.678-2.647,0,.005a6.5,6.5,0,0,1-2.89,2.333A9.291,9.291,0,0,1,5.849,18.913Zm1.732-8.031a4.1,4.1,0,0,0-1.924.512,1.889,1.889,0,0,0-.844,1.459,2.429,2.429,0,0,0,1.126,1.824,2.741,2.741,0,0,0,1.725.637,3.634,3.634,0,0,0,2.655-1.4,8.333,8.333,0,0,0,1.56-3.029Z" transform="translate(9.843 8.061)"/>
      <rect id="Rectangle_33" data-name="Rectangle 33" width="46.617" height="37.447" transform="translate(0)" fill="none"/>
      <path id="Exclusion_17" data-name="Exclusion 17" d="M9.279,18.6h0a9.413,9.413,0,0,1-6.447-2.345A9.578,9.578,0,0,1,0,9.068,8.47,8.47,0,0,1,2.458,2.9,9.714,9.714,0,0,1,5.768.742,10.688,10.688,0,0,1,9.657,0a9.437,9.437,0,0,1,4.02.871A9.178,9.178,0,0,1,17,3.733a9.7,9.7,0,0,1,1.463,3.258,11.248,11.248,0,0,1,.291,3.783h-14a4.5,4.5,0,0,0,3.86,3.46,6.2,6.2,0,0,0,.914.069,5.413,5.413,0,0,0,3.1-.966,4.784,4.784,0,0,0,1.048-.966l3.655,2.669,0,0a10.862,10.862,0,0,1-1.892,1.6,11.153,11.153,0,0,1-5.167,1.913C9.939,18.59,9.606,18.6,9.279,18.6ZM9.586,4.022h0A5.241,5.241,0,0,0,7.2,4.551,4.522,4.522,0,0,0,5.753,5.713,4.822,4.822,0,0,0,4.84,7.4h9.475a4.8,4.8,0,0,0-.905-1.69,4.49,4.49,0,0,0-1.443-1.162,5.22,5.22,0,0,0-2.38-.528Z" transform="translate(28.908 8.37)"/>
    </g>
  </g>
</svg>
