<svg xmlns="http://www.w3.org/2000/svg" width="26.007" height="26" viewBox="0 0 26.007 26">
  <path id="Path_987" data-name="Path 987" d="M993.942,1174.74l2.376,6.41,6.572.36a1.571,1.571,0,0,1,.89.35,1.752,1.752,0,0,1,.56.82,1.826,1.826,0,0,1,.02,1.01,1.759,1.759,0,0,1-.52.84l-5.119,4.33,1.709,6.66a1.827,1.827,0,0,1-.05,1.01,1.726,1.726,0,0,1-.583.81,1.6,1.6,0,0,1-.912.32,1.53,1.53,0,0,1-.924-.28l-5.541-3.75-5.528,3.72a1.594,1.594,0,0,1-.92.29,1.652,1.652,0,0,1-.912-.31,1.694,1.694,0,0,1-.588-.8,1.806,1.806,0,0,1-.063-1.01l1.7-6.63-5.1-4.36a1.675,1.675,0,0,1-.522-.84,1.817,1.817,0,0,1,.02-1.01,1.7,1.7,0,0,1,.554-.82,1.578,1.578,0,0,1,.9-.35l6.569-.36,2.376-6.4a1.71,1.71,0,0,1,.605-.79,1.553,1.553,0,0,1,1.835,0A1.689,1.689,0,0,1,993.942,1174.74Z" transform="translate(-979.417 -1172.66)" fill="#fff" stroke="#fff" stroke-linecap="round" stroke-linejoin="round" stroke-width="2" fill-rule="evenodd"/>
</svg>
